# xmcd CD database file
#
# Track frame offsets:
#	150
#	69170
#	141640
#	207170
#
# Disc length: 3582 seconds
#
# Revision: 4
# Processed by: cddbd v1.5.2PL0 Copyright (c) Steve Scherf et al.
# Submitted via: CDex 1.70beta2
#
DISCID=390dfc04
DTITLE=Miles Davis - Panthalassa - The Music Of Miles Davis 1969-1974
DYEAR=1998
DGENRE=Jazz
TTITLE0=In A Silent Way - Shhh/Peaceful - It's About That Time
TTITLE1=Black Satin - What If - Agharta Prelude Dub
TTITLE2=Rated X - Billy Preston
TTITLE3=He Loved Him Madly
EXTD=YEAR: 1998
EXTT0=
EXTT1=
EXTT2=
EXTT3=
PLAYORDER=
